<svg xmlns="http://www.w3.org/2000/svg" viewBox="0 0 1100 1280" width="1100" height="1280">
<defs>
  <marker id="arr" viewBox="0 0 10 7" refX="9" refY="3.5" markerWidth="9" markerHeight="7" orient="auto">
    <path d="M0,0 L10,3.5 L0,7 Z" fill="#59616d"/>
  </marker>
  <marker id="arrBlue" viewBox="0 0 10 7" refX="9" refY="3.5" markerWidth="9" markerHeight="7" orient="auto">
    <path d="M0,0 L10,3.5 L0,7 Z" fill="#0057b8"/>
  </marker>
  <filter id="sh" x="-5%" y="-5%" width="110%" height="120%">
    <feDropShadow dx="0" dy="1" stdDeviation="1.5" flood-opacity="0.12"/>
  </filter>
  <style>
    .t { font-family: system-ui, -apple-system, "Segoe UI", sans-serif; }
    .title { font-size: 20px; font-weight: 700; fill: #1c1f26; }
    .sub { font-size: 12px; fill: #59616d; }
    .h { font-size: 11px; font-weight: 700; fill: #59616d; letter-spacing: 0.4px; }
    .n { font-size: 13px; font-weight: 600; fill: #1c1f26; }
    .s { font-size: 11px; fill: #59616d; }
    .xs { font-size: 10px; fill: #6b7280; }
    .tab { font-size: 11px; font-weight: 600; fill: #1c1f26; }
    .tabA { font-size: 11px; font-weight: 700; fill: #0057b8; }
  </style>
</defs>
<rect width="100%" height="100%" fill="#f4f5f7"/>
<text class="t title" x="40" y="40">BirdNion Linux — Luồng UI</text>
<text class="t sub" x="40" y="62">Tauri tray window · vanilla TS · nguồn: linux/src/main.ts + tabs</text>
<text class="t h" x="40" y="95">0. SHELL (ngoài window)</text>
<rect x="40" y="105" width="200" height="70" rx="8" fill="#eef0f4" stroke="#d7dce2" filter="url(#sh)"/>
<text class="t n" x="55" y="130">System tray icon</text>
<text class="t xs" x="55" y="148">tooltip: Provider %…</text>
<rect x="280" y="105" width="200" height="70" rx="8" fill="#e7f1ff" stroke="#0057b8" filter="url(#sh)"/>
<text class="t n" x="295" y="130">App window #app</text>
<text class="t xs" x="295" y="148">đóng = ẩn xuống tray</text>
<rect x="520" y="105" width="220" height="70" rx="8" fill="#eef0f4" stroke="#d7dce2" filter="url(#sh)"/>
<text class="t n" x="535" y="130">OS notification</text>
<text class="t xs" x="535" y="148">quota ≤20% / fail ×3</text>
<rect x="780" y="105" width="280" height="70" rx="8" fill="#eef0f4" stroke="#d7dce2" filter="url(#sh)"/>
<text class="t n" x="795" y="130">Background tick 10s</text>
<text class="t xs" x="795" y="148">poll providers theo interval</text>
<line x1="240" y1="140" x2="280" y2="140" stroke="#0057b8" stroke-width="1.6" marker-end="url(#arrBlue)"/>
<line x1="480" y1="140" x2="520" y2="140" stroke="#6b7280" stroke-width="1.4" stroke-dasharray="4,3" marker-end="url(#arr)"/>
<line x1="740" y1="140" x2="780" y2="140" stroke="#6b7280" stroke-width="1.4" stroke-dasharray="4,3" marker-end="url(#arr)"/>
<text class="t h" x="40" y="210">1. TAB STRIP (mọi màn — tabsStrip)</text>
<rect x="40" y="220" width="1020" height="56" rx="8" fill="#eef0f4" stroke="#d7dce2" filter="url(#sh)"/>
<rect x="55" y="232" width="80" height="32" rx="6" fill="#e7f1ff" stroke="#0057b8"/>
<text class="t tabA" x="63" y="252">⊞ All</text>
<rect x="145" y="232" width="80" height="32" rx="6" fill="#fafbfc" stroke="#d7dce2"/>
<text class="t tab" x="153" y="252">Claude</text>
<rect x="235" y="232" width="80" height="32" rx="6" fill="#fafbfc" stroke="#d7dce2"/>
<text class="t tab" x="243" y="252">Codex</text>
<rect x="325" y="232" width="80" height="32" rx="6" fill="#fafbfc" stroke="#d7dce2"/>
<text class="t tab" x="333" y="252">Grok</text>
<rect x="415" y="232" width="85" height="32" rx="6" fill="#fafbfc" stroke="#d7dce2"/>
<text class="t tab" x="423" y="252">… enabled</text>
<rect x="530" y="232" width="80" height="32" rx="6" fill="#fafbfc" stroke="#d7dce2"/>
<text class="t tab" x="538" y="252">OpenAI</text>
<rect x="620" y="232" width="80" height="32" rx="6" fill="#fafbfc" stroke="#d7dce2"/>
<text class="t tab" x="628" y="252">Ollama</text>
<rect x="710" y="232" width="85" height="32" rx="6" fill="#fafbfc" stroke="#d7dce2"/>
<text class="t tab" x="718" y="252">…</text>
<rect x="780" y="232" width="80" height="32" rx="6" fill="#fafbfc" stroke="#d7dce2"/>
<text class="t tab" x="788" y="252">VI/EN</text>
<rect x="870" y="232" width="95" height="32" rx="6" fill="#e7f1ff" stroke="#0057b8"/>
<text class="t tab" x="878" y="252">⚙ Settings</text>
<text class="t xs" x="40" y="295">state.tab ∈ { all | providerId | settings }  ·  localStorage birdnion.selectedTab  ·  Ctrl+, → settings</text>
<line x1="95" y1="276" x2="95" y2="320" stroke="#0057b8" stroke-width="1.6" marker-end="url(#arrBlue)"/>
<line x1="280" y1="276" x2="280" y2="320" stroke="#59616d" stroke-width="1.6" marker-end="url(#arr)"/>
<line x1="900" y1="276" x2="900" y2="320" stroke="#59616d" stroke-width="1.6" marker-end="url(#arr)"/>
<text class="t h" x="40" y="340">2A. TAB « All »  —  all-tab.ts</text>
<rect x="40" y="350" width="320" height="280" rx="8" fill="#fafbfc" stroke="#cc7c5e" filter="url(#sh)"/>
<text class="t n" x="55" y="375">Empty?</text>
<text class="t xs" x="55" y="392">không claude/codex/grok → noLogs</text>
<rect x="55" y="410" width="290" height="58" rx="6" fill="#fff" stroke="#d7dce2"/>
<text class="t n" x="65" y="430">① chartCard</text>
<text class="t xs" x="65" y="448">period 24h / 7 / 30 / 90 · stacked bars</text>
<rect x="55" y="478" width="290" height="58" rx="6" fill="#fff" stroke="#d7dce2"/>
<text class="t n" x="65" y="498">② heatmapCard (90 ngày)</text>
<text class="t xs" x="65" y="516">click cell → day detail · peak/avg/streak</text>
<rect x="55" y="546" width="290" height="58" rx="6" fill="#fff" stroke="#d7dce2"/>
<text class="t n" x="65" y="566">③ topModelsCard</text>
<text class="t xs" x="65" y="584">top 6 · màu theo source Claude/Codex/Grok</text>
<circle cx="70" cy="615" r="5" fill="#cc7c5e"/><text class="t xs" x="80" y="619">Claude</text>
<circle cx="145" cy="615" r="5" fill="#469be9"/><text class="t xs" x="155" y="619">Codex</text>
<circle cx="220" cy="615" r="5" fill="#111827"/><text class="t xs" x="230" y="619">Grok</text>
<text class="t h" x="380" y="340">2B. TAB « Provider »  —  provider-tab.ts</text>
<rect x="380" y="350" width="340" height="280" rx="8" fill="#fafbfc" stroke="#0057b8" filter="url(#sh)"/>
<rect x="395" y="365" width="310" height="50" rx="6" fill="#fff" stroke="#d7dce2"/>
<text class="t n" x="405" y="385">providerCard</text>
<text class="t xs" x="405" y="402">name · windows % · bar · reset · error</text>
<rect x="395" y="425" width="310" height="40" rx="6" fill="#fff" stroke="#d7dce2"/>
<text class="t s" x="405" y="450">self-test button (test_provider)</text>
<rect x="395" y="475" width="310" height="40" rx="6" fill="#fff" stroke="#d7dce2"/>
<text class="t s" x="405" y="500">storage footprint (nếu bật)</text>
<rect x="395" y="525" width="310" height="45" rx="6" fill="#e7f1ff" stroke="#0057b8"/>
<text class="t n" x="405" y="545">Claude only: quick-apply Claude Code</text>
<text class="t xs" x="405" y="560">→ nhảy Settings nếu cần setup</text>
<rect x="395" y="580" width="310" height="35" rx="6" fill="#fff8f5" stroke="#cc7c5e"/>
<text class="t s" x="405" y="602">+ sourceChart 30d nếu claude|codex|grok</text>
<text class="t h" x="740" y="340">2C. TAB « ⚙ »  —  settings-tab.ts</text>
<rect x="740" y="350" width="320" height="280" rx="8" fill="#fafbfc" stroke="#111827" filter="url(#sh)"/>
<rect x="755" y="365" width="90" height="28" rx="5" fill="#e7f1ff" stroke="#0057b8"/>
<text class="t tabA" x="768" y="383">Providers</text>
<rect x="850" y="365" width="80" height="28" rx="5" fill="#eef0f4" stroke="#d7dce2"/>
<text class="t tab" x="865" y="383">Chung</text>
<rect x="935" y="365" width="105" height="28" rx="5" fill="#eef0f4" stroke="#d7dce2"/>
<text class="t tab" x="955" y="383">Giới thiệu</text>
<rect x="755" y="410" width="290" height="70" rx="6" fill="#fff" stroke="#d7dce2"/>
<text class="t n" x="765" y="430">Providers panel</text>
<text class="t xs" x="765" y="448">26 rows: on/off · key · cookie · reorder</text>
<text class="t xs" x="765" y="464">Grok hint · OpenAI proj · Save</text>
<rect x="755" y="490" width="290" height="55" rx="6" fill="#fff" stroke="#d7dce2"/>
<text class="t n" x="765" y="510">Chung (General)</text>
<text class="t xs" x="765" y="528">poll interval · refresh now · autostart</text>
<rect x="755" y="555" width="290" height="55" rx="6" fill="#fff" stroke="#d7dce2"/>
<text class="t n" x="765" y="575">Giới thiệu (About)</text>
<text class="t xs" x="765" y="593">version · update · repo · toggles</text>
<text class="t h" x="40" y="660">3. TƯƠNG TÁC CHI TIẾT</text>
<rect x="40" y="675" width="340" height="200" rx="8" fill="#fff" stroke="#d7dce2" filter="url(#sh)"/>
<text class="t n" x="55" y="698">All · chartCard</text>
<text class="t s" x="55" y="720">• Pill period → re-render bars</text>
<text class="t s" x="55" y="738">• Hover cột → day/hour detail</text>
<text class="t s" x="55" y="756">• 24h: bar Claude-only + legend</text>
<text class="t s" x="55" y="774">  Codex/Grok = USD hôm nay</text>
<text class="t s" x="55" y="792">• 7/30/90: stack Claude|Codex|Grok</text>
<text class="t s" x="55" y="810">• Legend + est total + footnote</text>
<text class="t xs" x="55" y="840">file: all-tab.ts</text>
<rect x="400" y="675" width="340" height="200" rx="8" fill="#fff" stroke="#d7dce2" filter="url(#sh)"/>
<text class="t n" x="415" y="698">All · heatmap + models</text>
<text class="t s" x="415" y="720">• Click cell: pin breakdown</text>
<text class="t s" x="415" y="738">• Click lại: bỏ pin</text>
<text class="t s" x="415" y="756">• Stats: peak · avg · streak</text>
<text class="t s" x="415" y="774">• Top models bar % / total 90d</text>
<text class="t s" x="415" y="792">• Dot màu theo source</text>
<text class="t s" x="415" y="810">• Heat soft greens h0–h4</text>
<text class="t xs" x="415" y="840">file: all-tab.ts · styles.css</text>
<rect x="760" y="675" width="300" height="200" rx="8" fill="#fff" stroke="#d7dce2" filter="url(#sh)"/>
<text class="t n" x="775" y="698">Settings · provider row</text>
<text class="t s" x="775" y="720">• Checkbox enabled</text>
<text class="t s" x="775" y="738">• API key / cookie / admin key</text>
<text class="t s" x="775" y="756">• Interval + showInTray</text>
<text class="t s" x="775" y="774">• Claude Code models block</text>
<text class="t s" x="775" y="792">• Copilot device login</text>
<text class="t s" x="775" y="810">• Codex multi-account</text>
<text class="t xs" x="775" y="840">file: settings-*.ts</text>
<text class="t h" x="40" y="910">4. LUỒNG DỮ LIỆU → UI (không phải màn hình, nhưng nuôi UI)</text>
<rect x="40" y="925" width="1020" height="130" rx="8" fill="#eef0f4" stroke="#d7dce2" filter="url(#sh)"/>
<rect x="55" y="955" width="150" height="55" rx="8" fill="#fafbfc" stroke="#0057b8" filter="url(#sh)"/>
<text class="t n" x="65" y="977">load() / tick()</text>
<line x1="205" y1="983" x2="230" y2="983" stroke="#0057b8" stroke-width="1.6" marker-end="url(#arrBlue)"/>
<rect x="230" y="955" width="130" height="55" rx="8" fill="#fafbfc" stroke="#d7dce2" filter="url(#sh)"/>
<text class="t n" x="240" y="977">invoke Rust</text>
<line x1="360" y1="983" x2="390" y2="983" stroke="#0057b8" stroke-width="1.6" marker-end="url(#arrBlue)"/>
<rect x="390" y="955" width="150" height="55" rx="8" fill="#fafbfc" stroke="#d7dce2" filter="url(#sh)"/>
<text class="t n" x="400" y="977">claude/codex/grok</text>
<text class="t s" x="400" y="993">usage_report</text>
<line x1="540" y1="983" x2="570" y2="983" stroke="#0057b8" stroke-width="1.6" marker-end="url(#arrBlue)"/>
<rect x="570" y="955" width="140" height="55" rx="8" fill="#fafbfc" stroke="#d7dce2" filter="url(#sh)"/>
<text class="t n" x="580" y="977">provider_statuses</text>
<line x1="710" y1="983" x2="740" y2="983" stroke="#0057b8" stroke-width="1.6" marker-end="url(#arrBlue)"/>
<rect x="740" y="955" width="140" height="55" rx="8" fill="#fafbfc" stroke="#d7dce2" filter="url(#sh)"/>
<text class="t n" x="750" y="977">state + combine()</text>
<line x1="880" y1="983" x2="910" y2="983" stroke="#0057b8" stroke-width="1.6" marker-end="url(#arrBlue)"/>
<rect x="910" y="955" width="120" height="55" rx="8" fill="#fafbfc" stroke="#0057b8" filter="url(#sh)"/>
<text class="t n" x="920" y="977">render()</text>
<text class="t xs" x="55" y="1030">cost_history high-water merge trong Rust trước khi trả UsageReport · settings.json shared ~/.config/birdnion/</text>
<text class="t h" x="40" y="1085">5. LỐI PHỤ / TRẠNG THÁI NGOÀI TAB</text>
<rect x="40" y="1100" width="240" height="70" rx="8" fill="#fafbfc" stroke="#d7dce2" filter="url(#sh)"/>
<text class="t n" x="55" y="1125">Focus window</text>
<text class="t xs" x="55" y="1143">refreshOnOpen → refreshNow</text>
<rect x="300" y="1100" width="240" height="70" rx="8" fill="#fafbfc" stroke="#d7dce2" filter="url(#sh)"/>
<text class="t n" x="315" y="1125">Ctrl + ,</text>
<text class="t xs" x="315" y="1143">→ tab Settings</text>
<rect x="560" y="1100" width="240" height="70" rx="8" fill="#fafbfc" stroke="#d7dce2" filter="url(#sh)"/>
<text class="t n" x="575" y="1125">Save settings</text>
<text class="t xs" x="575" y="1143">→ onSaved → load() full</text>
<rect x="820" y="1100" width="240" height="70" rx="8" fill="#fafbfc" stroke="#d7dce2" filter="url(#sh)"/>
<text class="t n" x="835" y="1125">Lang VI ↔ EN</text>
<text class="t xs" x="835" y="1143">localStorage + re-render</text>
<text class="t xs" x="40" y="1210">Accepted gaps: không global hotkey OS · menu-bar % → tray tooltip · Settings gộp 3 section (không 7 tab macOS)</text>
<text class="t xs" x="40" y="1235">Nguồn chứng minh: linux/src/main.ts · all-tab.ts · provider-tab.ts · settings-tab.ts · settings-about.ts</text>
</svg>